<?xml version="1.0" standalone="no"?>
<!DOCTYPE svg PUBLIC "-//W3C//DTD SVG 20010904//EN"
 "http://www.w3.org/TR/2001/REC-SVG-20010904/DTD/svg10.dtd">
<svg version="1.0" xmlns="http://www.w3.org/2000/svg"
 width="256.000000pt" height="256.000000pt" viewBox="0 0 256.000000 256.000000"
 preserveAspectRatio="xMidYMid meet">

<g transform="translate(0.000000,256.000000) scale(0.100000,-0.100000)"
fill="#000000" stroke="none">
<path d="M1110 2545 c-294 -44 -526 -160 -731 -364 -269 -270 -408 -647 -371
-1006 34 -324 152 -576 371 -795 353 -351 849 -466 1318 -306 361 123 666 428
789 789 133 390 76 802 -158 1145 -112 164 -319 340 -500 425 -228 107 -485
147 -718 112z m218 -757 l2 -167 158 -3 157 -3 3 -107 3 -108 -156 0 -155 0 0
-245 c0 -276 1 -281 71 -309 75 -30 135 -21 277 41 9 4 12 -20 12 -101 0 -119
5 -112 -96 -146 -145 -50 -316 -46 -431 10 -71 35 -138 104 -153 159 -5 20
-10 158 -10 314 l0 277 -75 0 -75 0 0 95 0 95 49 25 c87 44 164 140 205 257
32 93 26 89 124 86 l87 -3 3 -167z"/>
</g>
</svg>
